<svg xmlns="http://www.w3.org/2000/svg" viewBox="0 0 64 64">
  <rect width="64" height="64" fill="#020603" />
  <rect x="8" y="6" width="8" height="16" rx="1" fill="#133b12" />
  <rect x="8" y="22" width="8" height="18" rx="1" fill="#5bdc45" />
  <rect x="8" y="40" width="8" height="16" rx="1" fill="#163d14" />

  <rect x="20" y="8" width="8" height="12" rx="1" fill="#77f25a" />
  <rect x="20" y="20" width="8" height="18" rx="1" fill="#1e6c1a" />
  <rect x="20" y="38" width="8" height="18" rx="1" fill="#91ff73" />

  <rect x="32" y="6" width="8" height="20" rx="1" fill="#123311" />
  <rect x="32" y="26" width="8" height="14" rx="1" fill="#69ee55" />
  <rect x="32" y="40" width="8" height="14" rx="1" fill="#184717" />

  <rect x="44" y="10" width="8" height="16" rx="1" fill="#84ff63" />
  <rect x="44" y="26" width="8" height="14" rx="1" fill="#204d1a" />
  <rect x="44" y="40" width="8" height="16" rx="1" fill="#5ad749" />
</svg>
